<svg xmlns="http://www.w3.org/2000/svg" width="272.855" height="272.855" viewBox="0 0 272.855 272.855"><g transform="translate(118.264 118.309)"><path d="M118.3.293a118.3,118.3,0,0,0,0,236.605c19.942,0,39.547-4.732,56.109-13.858a33.8,33.8,0,0,0,4.394,4.394l33.8,33.8a34.477,34.477,0,1,0,48.673-48.673l-33.8-33.8a33.8,33.8,0,0,0-5.408-4.394,116.712,116.712,0,0,0,14.872-56.109,118.432,118.432,0,0,0-118.3-118.3Zm0,33.8a84.1,84.1,0,0,1,84.5,84.5c0,22.308-8.112,42.927-22.308,58.137l-1.014,1.014a33.8,33.8,0,0,0-4.394,4.394c-14.872,13.52-35.153,21.294-57.123,21.294a84.5,84.5,0,0,1,0-169Z" transform="translate(-118.264 -118.264)" fill="#3f3d56"/><g transform="translate(-61.056 -41.244)"><path d="M58.482,7.875c-20.2,0-36.134,12.715-55.181,33.5a3.973,3.973,0,0,0-.025,5.352C19.584,64.74,33.957,80.244,58.482,80.244c24.223,0,42.391-19.525,55.307-33.672a3.942,3.942,0,0,0,.126-5.2C100.748,25.414,82.53,7.875,58.482,7.875ZM59.588,66.65A22.615,22.615,0,1,1,81.123,45.115,22.624,22.624,0,0,1,59.588,66.65Z" transform="translate(0)" fill="#3f3d56"/><path d="M29.579,17.772a11.806,11.806,0,0,1,.779-4.247c-.251,0-.5-.025-.779-.025A16.08,16.08,0,1,0,45.661,29.582c0-.327-.025-.653-.025-.98a11.143,11.143,0,0,1-4.573.98A11.666,11.666,0,0,1,29.579,17.772Z" transform="translate(28.953 14.477)" fill="#3f3d56"/></g></g></svg>